<!DOCTYPE svg PUBLIC "-//W3C//DTD SVG 1.1//EN" "http://www.w3.org/Graphics/SVG/1.1/DTD/svg11.dtd">
<!-- Uploaded to: SVG Repo, www.svgrepo.com, Transformed by: SVG Repo Mixer Tools -->
<svg fill="#0096ff" height="800px" width="800px" version="1.1" id="Capa_1" xmlns="http://www.w3.org/2000/svg" xmlns:xlink="http://www.w3.org/1999/xlink" viewBox="-6 -6 72.00 72.00" xml:space="preserve" stroke="#0096ff" transform="matrix(1, 0, 0, 1, 0, 0)" stroke-width="0.0006000000000000001">
<g id="SVGRepo_bgCarrier" stroke-width="0"/>
<g id="SVGRepo_tracerCarrier" stroke-linecap="round" stroke-linejoin="round"/>
<g id="SVGRepo_iconCarrier"> <g> <path d="M14,23.5c-0.254,0-0.479,0.172-0.545,0.417L2,52.5v1c0,0.734-0.047,1,0.565,1h44.759c1.156,0,2.174-0.779,2.45-1.813 L60,24.5c0,0,0-0.625,0-1H14z"/> <path d="M12.731,21.5H53h1v-6.268c0-1.507-1.226-2.732-2.732-2.732H26.515l-5-7H2.732C1.226,5.5,0,6.726,0,8.232v41.796 l10.282-26.717C10.557,22.279,11.575,21.5,12.731,21.5z"/> </g> </g>
</svg>